<?xml version="1.0" encoding="UTF-8" standalone="no"?>
<!DOCTYPE svg PUBLIC "-//W3C//DTD SVG 1.1//EN" "http://www.w3.org/Graphics/SVG/1.1/DTD/svg11.dtd">
<svg xmlns="http://www.w3.org/2000/svg" version="1.1" viewBox="0.00 0.00 200.00 103.00">
<path fill="#ffffff" d="
  M 32.74 31.76
  L 23.72 31.76
  A 0.29 0.29 0.0 0 1 23.43 31.47
  L 23.47 24.50
  A 0.28 0.28 0.0 0 1 23.75 24.22
  L 42.75 24.22
  Q 43.31 24.22 43.35 24.77
  C 43.99 33.63 43.00 40.54 35.12 45.80
  C 25.97 51.90 14.92 49.92 7.73 41.82
  C -0.08 33.01 0.37 17.16 9.94 9.13
  C 18.84 1.65 31.15 2.89 39.46 10.87
  A 0.98 0.98 0.0 0 1 39.51 12.24
  L 34.16 18.13
  Q 33.56 18.79 33.11 18.03
  C 30.75 14.13 25.39 12.14 21.02 13.62
  C 8.62 17.84 11.17 41.52 24.74 40.23
  C 28.90 39.83 33.68 36.85 33.26 32.23
  Q 33.21 31.76 32.74 31.76
  Z"
/>
<path fill="#ffffff" d="
  M 153.74 42.95
  Q 153.73 44.24 154.21 43.04
  L 169.34 5.48
  Q 169.53 5.01 170.04 5.01
  L 178.03 5.00
  Q 178.61 5.00 178.82 5.53
  L 195.99 48.20
  A 0.22 0.22 0.0 0 1 195.78 48.50
  L 185.77 48.50
  A 0.31 0.31 0.0 0 1 185.48 48.29
  L 182.51 40.18
  Q 182.36 39.77 181.93 39.77
  L 166.28 39.77
  Q 165.78 39.77 165.61 40.24
  L 162.76 47.99
  Q 162.57 48.50 162.02 48.50
  L 107.29 48.50
  Q 106.88 48.50 106.62 48.18
  L 94.31 32.22
  Q 93.54 31.22 93.54 32.49
  L 93.54 47.98
  Q 93.54 48.50 93.02 48.50
  L 74.56 48.50
  Q 74.09 48.50 73.93 48.07
  L 71.07 40.29
  Q 70.87 39.76 70.30 39.76
  L 54.82 39.77
  Q 54.31 39.77 54.13 40.25
  L 51.22 48.21
  Q 51.11 48.51 50.79 48.51
  L 40.82 48.49
  A 0.18 0.18 0.0 0 1 40.65 48.25
  L 57.97 5.21
  A 0.35 0.33 -77.9 0 1 58.28 5.00
  L 66.56 5.00
  Q 67.14 5.00 67.35 5.54
  L 83.10 44.66
  Q 83.74 46.26 83.74 44.53
  L 83.75 5.52
  Q 83.75 5.07 84.20 5.06
  Q 97.18 4.84 100.73 5.04
  C 115.41 5.88 118.16 24.99 104.97 30.32
  Q 104.43 30.54 104.80 30.99
  L 117.41 46.15
  A 0.32 0.32 0.0 0 0 117.93 46.12
  L 137.71 14.02
  A 0.22 0.21 15.8 0 0 137.52 13.69
  L 119.72 13.69
  Q 119.50 13.69 119.50 13.47
  L 119.49 5.26
  A 0.26 0.25 -90.0 0 1 119.74 5.00
  L 154.71 5.01
  A 0.23 0.23 0.0 0 1 154.90 5.36
  L 133.96 39.28
  A 0.39 0.39 0.0 0 0 134.29 39.87
  L 153.31 39.86
  Q 153.76 39.86 153.76 40.31
  L 153.74 42.95
  Z
  M 93.50 13.28
  L 93.56 23.94
  A 0.34 0.34 0.0 0 0 93.90 24.28
  L 97.57 24.26
  A 5.45 5.31 -0.3 0 0 102.99 18.93
  L 102.99 18.21
  A 5.45 5.31 -0.3 0 0 97.51 12.92
  L 93.84 12.94
  A 0.34 0.34 0.0 0 0 93.50 13.28
  Z
  M 57.81 30.75
  A 0.33 0.33 0.0 0 0 58.12 31.20
  L 67.08 31.20
  A 0.33 0.33 0.0 0 0 67.39 30.75
  L 62.91 19.02
  A 0.33 0.33 0.0 0 0 62.29 19.02
  L 57.81 30.75
  Z
  M 169.28 30.75
  A 0.32 0.32 0.0 0 0 169.57 31.18
  L 178.56 31.19
  A 0.32 0.32 0.0 0 0 178.86 30.75
  L 174.37 19.03
  A 0.32 0.32 0.0 0 0 173.77 19.03
  L 169.28 30.75
  Z"
/>
<path fill="#ffffff" d="
  M 174.63 53.07
  L 152.68 74.67
  A 0.45 0.45 0.0 0 1 152.04 74.67
  L 151.16 73.80
  A 0.45 0.45 0.0 0 1 151.16 73.16
  L 174.62 50.04
  A 0.45 0.45 0.0 0 1 175.26 50.04
  L 198.70 73.09
  A 0.45 0.45 0.0 0 1 198.73 73.70
  L 197.89 74.67
  A 0.45 0.45 0.0 0 1 197.24 74.70
  L 175.27 53.07
  A 0.45 0.45 0.0 0 0 174.63 53.07
  Z"
/>
<path fill="#ffffff" d="
  M 60.3167 99.2990
  A 22.61 21.91 93.0 0 1 39.6200 75.5733
  A 22.61 21.91 93.0 0 1 62.6833 54.1410
  A 22.61 21.91 93.0 0 1 83.3800 77.8667
  A 22.61 21.91 93.0 0 1 60.3167 99.2990
  Z
  M 61.5331 89.9000
  A 13.22 11.36 89.9 0 0 72.8700 76.6602
  A 13.22 11.36 89.9 0 0 61.4869 63.4600
  A 13.22 11.36 89.9 0 0 50.1500 76.6998
  A 13.22 11.36 89.9 0 0 61.5331 89.9000
  Z"
/>
<path fill="#ffffff" d="
  M 98.06 64.20
  C 95.42 66.31 96.60 69.27 99.36 70.45
  C 108.14 74.18 119.32 78.86 114.78 91.01
  Q 112.93 95.96 106.94 97.79
  Q 94.21 101.68 83.37 93.69
  A 0.33 0.33 0.0 0 1 83.29 93.26
  L 87.94 85.40
  Q 88.11 85.12 88.35 85.34
  C 91.72 88.34 99.14 91.82 103.01 89.27
  C 106.47 87.00 105.06 83.53 101.89 81.88
  C 95.25 78.40 85.76 75.21 87.00 65.52
  Q 87.54 61.29 90.74 58.24
  C 97.03 52.26 106.99 53.48 113.98 57.85
  Q 114.49 58.17 114.22 58.72
  L 110.79 65.54
  Q 110.51 66.10 109.98 65.76
  C 107.22 63.96 101.21 61.69 98.06 64.20
  Z"
/>
<path fill="#ffffff" d="
  M 28.04 71.96
  L 28.03 55.29
  A 0.30 0.30 0.0 0 1 28.33 54.99
  L 37.62 54.99
  A 0.30 0.30 0.0 0 1 37.92 55.29
  L 37.93 98.08
  A 0.30 0.30 0.0 0 1 37.63 98.38
  L 28.33 98.39
  A 0.30 0.30 0.0 0 1 28.03 98.09
  L 28.03 81.19
  A 0.30 0.30 0.0 0 0 27.73 80.89
  L 14.31 80.95
  A 0.30 0.30 0.0 0 0 14.01 81.25
  L 14.00 98.09
  A 0.30 0.30 0.0 0 1 13.70 98.39
  L 4.54 98.39
  A 0.30 0.30 0.0 0 1 4.24 98.09
  L 4.25 55.28
  A 0.30 0.30 0.0 0 1 4.55 54.98
  L 13.71 54.98
  A 0.30 0.30 0.0 0 1 14.01 55.28
  L 14.03 71.98
  A 0.30 0.30 0.0 0 0 14.33 72.28
  L 27.74 72.26
  A 0.30 0.30 0.0 0 0 28.04 71.96
  Z"
/>
<path fill="#ffffff" d="
  M 135.25 63.85
  L 135.25 98.07
  A 0.31 0.31 0.0 0 1 134.94 98.38
  L 125.76 98.39
  A 0.31 0.31 0.0 0 1 125.45 98.08
  L 125.45 63.84
  A 0.31 0.31 0.0 0 0 125.14 63.53
  L 115.44 63.52
  A 0.31 0.31 0.0 0 1 115.13 63.21
  L 115.14 55.29
  A 0.31 0.31 0.0 0 1 115.45 54.98
  L 145.21 54.98
  A 0.31 0.31 0.0 0 1 145.52 55.29
  L 145.53 63.22
  A 0.31 0.31 0.0 0 1 145.22 63.53
  L 135.56 63.54
  A 0.31 0.31 0.0 0 0 135.25 63.85
  Z"
/>
<path fill="#ffffff" d="
  M 181.04 86.92
  L 178.67 87.07
  A 0.25 0.24 -30.3 0 0 178.55 87.52
  Q 180.74 88.91 181.14 89.66
  Q 181.46 90.27 180.92 89.75
  C 178.45 87.41 175.66 87.59 173.12 85.85
  C 169.85 83.61 163.77 80.59 165.71 75.77
  A 1.16 1.16 0.0 0 0 164.79 74.19
  L 158.24 73.26
  Q 158.17 73.25 158.19 73.03
  L 158.19 73.02
  Q 158.21 72.83 158.40 72.84
  C 161.24 72.88 165.76 71.23 166.95 74.84
  Q 167.11 75.34 166.96 75.83
  Q 165.96 79.02 168.88 80.51
  A 0.86 0.86 0.0 0 0 170.13 79.65
  Q 169.92 77.87 168.58 76.66
  A 0.55 0.55 0.0 0 1 169.00 75.71
  Q 170.63 75.88 172.04 76.69
  A 0.49 0.49 0.0 0 0 172.77 76.23
  C 172.52 72.66 171.70 68.98 176.23 67.65
  Q 180.63 66.35 184.86 65.41
  A 0.64 0.64 0.0 0 1 185.63 66.09
  C 185.26 70.68 182.25 71.52 179.13 73.86
  Q 178.77 74.13 178.74 74.57
  L 178.20 82.30
  A 0.85 0.85 0.0 0 0 179.04 83.21
  L 180.99 83.21
  Q 181.51 83.21 181.52 83.74
  L 181.52 85.83
  Q 181.52 86.35 181.95 86.66
  Q 182.79 87.27 183.26 88.23
  Q 183.51 88.76 183.10 88.34
  L 182.03 87.29
  Q 181.62 86.88 181.04 86.92
  Z"
/>
<path fill="#ffffff" d="
  M 158.37 99.47
  A 3.68 2.06 45.9 0 0 160.00 99.96
  L 190.26 99.96
  A 2.22 2.22 0.0 0 0 192.48 97.74
  L 192.49 81.01
  A 0.76 0.76 0.0 0 1 193.34 80.25
  L 193.63 80.28
  A 1.13 1.12 -86.9 0 1 194.63 81.40
  L 194.63 97.94
  A 4.06 4.06 0.0 0 1 190.57 102.01
  Q 175.38 102.02 159.50 102.01
  Q 155.22 102.01 155.20 97.25
  Q 155.17 89.02 155.33 81.10
  Q 155.35 80.26 156.19 80.31
  L 156.50 80.33
  Q 157.54 80.41 157.54 81.46
  Q 157.53 89.45 157.55 97.75
  Q 157.55 99.02 158.37 99.47
  Z"
/>
<path fill="#ffffff" d="
  M 185.61 91.68
  C 186.72 92.42 187.01 93.18 187.82 94.07
  A 0.21 0.21 0.0 0 1 187.72 94.41
  Q 187.58 94.45 187.43 94.49
  Q 187.29 94.52 187.18 94.42
  Q 186.03 93.33 185.44 91.81
  Q 185.31 91.48 185.61 91.68
  Z"
/>
<path fill="#ffffff" d="
  M 183.34 93.63
  Q 184.63 94.78 185.10 96.55
  Q 185.28 97.21 184.80 96.72
  Q 183.58 95.47 183.09 93.78
  Q 182.94 93.27 183.34 93.63
  Z"
/>
</svg>
